<svg id="visual" viewBox="0 0 1920 1080" width="1920" height="1080" xmlns="http://www.w3.org/2000/svg" xmlns:xlink="http://www.w3.org/1999/xlink" version="1.1"><g stroke-width="1" stroke-linejoin="bevel"><path d="M1039.7 540L876.3 382L859.3 519Z" fill="#353535" stroke="#353535"></path><path d="M1039.7 540L1036.7 324L876.3 382Z" fill="#3f3f3f" stroke="#3f3f3f"></path><path d="M1036.7 324L1032.7 218L876.3 382Z" fill="#0f0f0f" stroke="#0f0f0f"></path><path d="M860.3 734L1030.7 735L1039.7 540Z" fill="#2b2b2b" stroke="#2b2b2b"></path><path d="M876.3 382L676 514L859.3 519Z" fill="#191919" stroke="#191919"></path><path d="M859.3 519L860.3 734L1039.7 540Z" fill="#686868" stroke="#686868"></path><path d="M617 355L676 514L876.3 382Z" fill="#191919" stroke="#191919"></path><path d="M676 514L860.3 734L859.3 519Z" fill="#3f3f3f" stroke="#3f3f3f"></path><path d="M1032.7 218L861.3 170L876.3 382Z" fill="#494949" stroke="#494949"></path><path d="M648 196L617 355L876.3 382Z" fill="#2b2b2b" stroke="#2b2b2b"></path><path d="M1275 685L1316 522L1039.7 540Z" fill="#3f3f3f" stroke="#3f3f3f"></path><path d="M1039.7 540L1308 328L1036.7 324Z" fill="#222222" stroke="#222222"></path><path d="M1036.7 324L1268 180L1032.7 218Z" fill="#191919" stroke="#191919"></path><path d="M1316 522L1308 328L1039.7 540Z" fill="#000000" stroke="#000000"></path><path d="M1030.7 735L1275 685L1039.7 540Z" fill="#494949" stroke="#494949"></path><path d="M861.3 170L648 196L876.3 382Z" fill="#353535" stroke="#353535"></path><path d="M676 514L650 731L860.3 734Z" fill="#686868" stroke="#686868"></path><path d="M445.7 531L650 731L676 514Z" fill="#494949" stroke="#494949"></path><path d="M1308 328L1268 180L1036.7 324Z" fill="#000000" stroke="#000000"></path><path d="M1032.7 218L1028.7 0L861.3 170Z" fill="#000000" stroke="#000000"></path><path d="M841.3 920L1081.7 906L1030.7 735Z" fill="#353535" stroke="#353535"></path><path d="M1030.7 735L1241 915L1275 685Z" fill="#191919" stroke="#191919"></path><path d="M841.3 920L1030.7 735L860.3 734Z" fill="#0f0f0f" stroke="#0f0f0f"></path><path d="M1268 180L1028.7 0L1032.7 218Z" fill="#535353" stroke="#535353"></path><path d="M861.3 170L675 0L648 196Z" fill="#5d5d5d" stroke="#5d5d5d"></path><path d="M1028.7 0L863.3 0L861.3 170Z" fill="#535353" stroke="#535353"></path><path d="M650 731L841.3 920L860.3 734Z" fill="#0f0f0f" stroke="#0f0f0f"></path><path d="M418.7 355L445.7 531L617 355Z" fill="#2b2b2b" stroke="#2b2b2b"></path><path d="M617 355L445.7 531L676 514Z" fill="#686868" stroke="#686868"></path><path d="M650 731L635 924L841.3 920Z" fill="#353535" stroke="#353535"></path><path d="M1081.7 906L1241 915L1030.7 735Z" fill="#222222" stroke="#222222"></path><path d="M1523.3 560L1480.3 320L1316 522Z" fill="#494949" stroke="#494949"></path><path d="M1101.7 1080L1241 915L1081.7 906Z" fill="#686868" stroke="#686868"></path><path d="M863.3 0L675 0L861.3 170Z" fill="#0f0f0f" stroke="#0f0f0f"></path><path d="M648 196L418.7 355L617 355Z" fill="#0f0f0f" stroke="#0f0f0f"></path><path d="M1523.3 560L1316 522L1514.3 708Z" fill="#686868" stroke="#686868"></path><path d="M1316 522L1480.3 320L1308 328Z" fill="#222222" stroke="#222222"></path><path d="M1308 328L1461.3 146L1268 180Z" fill="#000000" stroke="#000000"></path><path d="M1268 180L1253 0L1028.7 0Z" fill="#494949" stroke="#494949"></path><path d="M1461.3 146L1253 0L1268 180Z" fill="#686868" stroke="#686868"></path><path d="M405.7 160L418.7 355L648 196Z" fill="#0f0f0f" stroke="#0f0f0f"></path><path d="M419.7 909L635 924L650 731Z" fill="#0f0f0f" stroke="#0f0f0f"></path><path d="M841.3 920L839.3 1080L1081.7 906Z" fill="#494949" stroke="#494949"></path><path d="M238.3 520L442.7 702L445.7 531Z" fill="#2b2b2b" stroke="#2b2b2b"></path><path d="M445.7 531L442.7 702L650 731Z" fill="#0f0f0f" stroke="#0f0f0f"></path><path d="M1514.3 708L1316 522L1275 685Z" fill="#535353" stroke="#535353"></path><path d="M1480.3 320L1461.3 146L1308 328Z" fill="#5d5d5d" stroke="#5d5d5d"></path><path d="M1455.3 0L1461.3 146L1678.7 144Z" fill="#0f0f0f" stroke="#0f0f0f"></path><path d="M1530.3 860L1514.3 708L1275 685Z" fill="#222222" stroke="#222222"></path><path d="M460.7 0L405.7 160L648 196Z" fill="#353535" stroke="#353535"></path><path d="M652 1080L839.3 1080L841.3 920Z" fill="#000000" stroke="#000000"></path><path d="M839.3 1080L1101.7 1080L1081.7 906Z" fill="#494949" stroke="#494949"></path><path d="M1241 915L1530.3 860L1275 685Z" fill="#000000" stroke="#000000"></path><path d="M675 0L460.7 0L648 196Z" fill="#494949" stroke="#494949"></path><path d="M1678.7 144L1461.3 146L1480.3 320Z" fill="#222222" stroke="#222222"></path><path d="M1461.3 146L1455.3 0L1253 0Z" fill="#686868" stroke="#686868"></path><path d="M635 924L652 1080L841.3 920Z" fill="#2b2b2b" stroke="#2b2b2b"></path><path d="M408.7 1080L652 1080L635 924Z" fill="#222222" stroke="#222222"></path><path d="M1475.3 1080L1530.3 860L1241 915Z" fill="#353535" stroke="#353535"></path><path d="M1725.7 573L1681.7 387L1523.3 560Z" fill="#000000" stroke="#000000"></path><path d="M442.7 702L419.7 909L650 731Z" fill="#535353" stroke="#535353"></path><path d="M185.3 752L419.7 909L442.7 702Z" fill="#686868" stroke="#686868"></path><path d="M238.3 520L445.7 531L418.7 355Z" fill="#535353" stroke="#535353"></path><path d="M1101.7 1080L1314 1080L1241 915Z" fill="#0f0f0f" stroke="#0f0f0f"></path><path d="M234.3 321L418.7 355L405.7 160Z" fill="#686868" stroke="#686868"></path><path d="M234.3 321L238.3 520L418.7 355Z" fill="#353535" stroke="#353535"></path><path d="M1725.7 573L1523.3 560L1701.7 693Z" fill="#191919" stroke="#191919"></path><path d="M1523.3 560L1681.7 387L1480.3 320Z" fill="#3f3f3f" stroke="#3f3f3f"></path><path d="M248.3 150L234.3 321L405.7 160Z" fill="#5d5d5d" stroke="#5d5d5d"></path><path d="M460.7 0L248.3 150L405.7 160Z" fill="#2b2b2b" stroke="#2b2b2b"></path><path d="M1701.7 693L1523.3 560L1514.3 708Z" fill="#0f0f0f" stroke="#0f0f0f"></path><path d="M1736.7 886L1701.7 693L1530.3 860Z" fill="#222222" stroke="#222222"></path><path d="M1530.3 860L1701.7 693L1514.3 708Z" fill="#2b2b2b" stroke="#2b2b2b"></path><path d="M1681.7 387L1678.7 144L1480.3 320Z" fill="#191919" stroke="#191919"></path><path d="M1717.7 0L1678.7 144L1920 155Z" fill="#2b2b2b" stroke="#2b2b2b"></path><path d="M1314 1080L1475.3 1080L1241 915Z" fill="#353535" stroke="#353535"></path><path d="M0 687L185.3 752L238.3 520Z" fill="#5d5d5d" stroke="#5d5d5d"></path><path d="M238.3 520L185.3 752L442.7 702Z" fill="#3f3f3f" stroke="#3f3f3f"></path><path d="M419.7 909L408.7 1080L635 924Z" fill="#2b2b2b" stroke="#2b2b2b"></path><path d="M0 506L238.3 520L0 389Z" fill="#3f3f3f" stroke="#3f3f3f"></path><path d="M232.3 912L408.7 1080L419.7 909Z" fill="#494949" stroke="#494949"></path><path d="M185.3 752L232.3 912L419.7 909Z" fill="#5d5d5d" stroke="#5d5d5d"></path><path d="M460.7 0L200.3 0L248.3 150Z" fill="#535353" stroke="#535353"></path><path d="M0 389L238.3 520L234.3 321Z" fill="#353535" stroke="#353535"></path><path d="M1725.7 1080L1736.7 886L1530.3 860Z" fill="#494949" stroke="#494949"></path><path d="M1920 752L1920 523L1725.7 573Z" fill="#494949" stroke="#494949"></path><path d="M1920 349L1678.7 144L1681.7 387Z" fill="#686868" stroke="#686868"></path><path d="M1678.7 144L1717.7 0L1455.3 0Z" fill="#686868" stroke="#686868"></path><path d="M1920 523L1681.7 387L1725.7 573Z" fill="#000000" stroke="#000000"></path><path d="M0 389L234.3 321L0 175Z" fill="#2b2b2b" stroke="#2b2b2b"></path><path d="M0 1080L197.3 1080L232.3 912Z" fill="#353535" stroke="#353535"></path><path d="M0 175L234.3 321L248.3 150Z" fill="#535353" stroke="#535353"></path><path d="M1920 752L1725.7 573L1701.7 693Z" fill="#5d5d5d" stroke="#5d5d5d"></path><path d="M1920 523L1920 349L1681.7 387Z" fill="#535353" stroke="#535353"></path><path d="M232.3 912L197.3 1080L408.7 1080Z" fill="#000000" stroke="#000000"></path><path d="M0 862L232.3 912L185.3 752Z" fill="#353535" stroke="#353535"></path><path d="M0 506L0 687L238.3 520Z" fill="#5d5d5d" stroke="#5d5d5d"></path><path d="M1475.3 1080L1725.7 1080L1530.3 860Z" fill="#0f0f0f" stroke="#0f0f0f"></path><path d="M1736.7 886L1920 752L1701.7 693Z" fill="#2b2b2b" stroke="#2b2b2b"></path><path d="M200.3 0L0 175L248.3 150Z" fill="#3f3f3f" stroke="#3f3f3f"></path><path d="M1920 874L1920 752L1736.7 886Z" fill="#3f3f3f" stroke="#3f3f3f"></path><path d="M1920 349L1920 155L1678.7 144Z" fill="#000000" stroke="#000000"></path><path d="M0 687L0 862L185.3 752Z" fill="#686868" stroke="#686868"></path><path d="M1920 1080L1920 874L1736.7 886Z" fill="#222222" stroke="#222222"></path><path d="M200.3 0L0 0L0 175Z" fill="#2b2b2b" stroke="#2b2b2b"></path><path d="M1920 155L1920 0L1717.7 0Z" fill="#353535" stroke="#353535"></path><path d="M0 862L0 1080L232.3 912Z" fill="#3f3f3f" stroke="#3f3f3f"></path><path d="M1725.7 1080L1920 1080L1736.7 886Z" fill="#5d5d5d" stroke="#5d5d5d"></path></g></svg>